<svg xmlns="http://www.w3.org/2000/svg" viewBox="0 0 1502.97 499"><defs><style>.cls-1,.cls-3{fill:#fc8d08;}.cls-1{stroke:#b26008;stroke-miterlimit:10;stroke-width:11px;}.cls-2{fill:#b26008;}</style></defs><g id="Layer_2" data-name="Layer 2"><g id="Layer_1-2" data-name="Layer 1"><circle class="cls-1" cx="1253.47" cy="249.5" r="244"/><path class="cls-2" d="M1245.1,57h10a8.37,8.37,0,0,0,1.35.41c23.23,2.87,40,14.94,50.42,35.78a2.45,2.45,0,0,0,2.53,1.57,64.52,64.52,0,0,1,7.35.52,62.61,62.61,0,0,1,53.43,73.18c-.31,1.77.18,2.5,1.54,3.38a62,62,0,0,1,27.46,38.78c.7,2.91,1.12,5.88,1.67,8.82v10.48a13.13,13.13,0,0,0-.47,1.79c-5.13,45.15-55.11,70-94.22,46.85-.73-.43-1.48-.82-2.2-1.22a4.77,4.77,0,0,0-.63.59,64.39,64.39,0,0,1-19.9,18.84,3.28,3.28,0,0,0-1.26,2.29c-.42,5-.84,10-1,15-.35,13.55.57,27,4.41,40.06,3.66,12.42,9.54,23.35,21.18,30.21.07.05.06.24.09.37-4.46-.46-13.56-3.72-18.45-6.67-4.39-2.65-8.14-5.85-9.15-11.24-10.16,2.73-15.56,12.67-15.34,28.41a24.63,24.63,0,0,1-6.64-10.2,20.55,20.55,0,0,1-.15-11.7c-3.48,4.86-6.8,10-10.64,14.69a31.89,31.89,0,0,1-7.58,6.37c-1.61,1.05-3.85,1.13-5.81,1.65l-.36-.83c4.68-2,7.44-5.63,8.9-10.26a26.7,26.7,0,0,0,.45-14.17c-13.85,5-20.69,16.53-27.85,27.84.39-8.59-.17-17.23,3.91-25.36a137.33,137.33,0,0,0-11.76,9.59c-3.83,3.29-7.63,6.61-11.45,9.92l-.53-.54c1.71-1.95,3.38-3.95,5.15-5.84,3.09-3.3,6.51-6.32,9.33-9.83,16.85-21,23.9-45.29,24-71.9,0-1.51-.64-2-1.93-2.46a62.52,62.52,0,0,1-28.71-20.4c-.39-.48-.84-.92-1.28-1.41l-1.76.94a62.57,62.57,0,0,1-91.5-40.37c-.72-3-1.18-6-1.76-9.05V221.31a9.27,9.27,0,0,0,.45-1.57c2.34-19.23,11.58-34.29,27.48-45.25,1.56-1.08,1.74-2,1.21-3.67a59.58,59.58,0,0,1-1.77-28c5.16-29.57,29-50.66,59-52.31a3.76,3.76,0,0,0,3.51-2.11c9.55-16,23.42-26.16,41.72-30.07C1240.12,57.8,1242.62,57.41,1245.1,57ZM1261.94,273a6.46,6.46,0,0,0-1.42,6.13,86.77,86.77,0,0,0,2.79,10c1.6,4.51,2.15,4.66,6.73,2.91,5.53-2.11,10-5.83,14.18-9.81.92-.87,1.79-1.8,2.68-2.7C1277.05,282.65,1268.86,280.45,1261.94,273Zm-12.69,5.14-.62-.19c-5.6,6.2-12.28,8.22-20.41,5.55a75.51,75.51,0,0,0,9.47,8.26c2,1.38,4.4,2.07,6.65,3a1.57,1.57,0,0,0,2.35-1.19c1-3.48,2.24-6.92,3-10.46C1250,281.59,1249.43,279.84,1249.25,278.17Z"/><path class="cls-2" d="M1137.94,410.89a1.73,1.73,0,0,1-.91.28,1.87,1.87,0,0,1-.87-.27,2.47,2.47,0,0,1-.8-.9c-.25-.42-.54-.9-.88-1.45a15.47,15.47,0,0,0-1.31-1.73,9.77,9.77,0,0,0-2.13-1.75,9.21,9.21,0,0,0-2.25-1.09,5.6,5.6,0,0,0-2-.28,3.61,3.61,0,0,0-1.64.48,3.94,3.94,0,0,0-1.23,1.18,2.66,2.66,0,0,0-.46,2,6.1,6.1,0,0,0,.92,2.2,19.37,19.37,0,0,0,1.83,2.35c.74.81,1.48,1.65,2.24,2.5s1.49,1.75,2.17,2.67a11.8,11.8,0,0,1,1.61,2.86,7.76,7.76,0,0,1,.53,3.1,7.48,7.48,0,0,1-1.06,3.4,9.41,9.41,0,0,1-2.88,3.16,9.3,9.3,0,0,1-4.06,1.54,12.91,12.91,0,0,1-5-.35,19.11,19.11,0,0,1-5.59-2.55,23.31,23.31,0,0,1-3.08-2.4,23,23,0,0,1-2.55-2.8,19.68,19.68,0,0,1-1.92-3,15.44,15.44,0,0,1-1.17-3l3.5-1.09a2.52,2.52,0,0,1,.91,0,2.19,2.19,0,0,1,.91.38,3.1,3.1,0,0,1,1,1.25c.27.56.6,1.21,1,1.94a14.68,14.68,0,0,0,1.58,2.31,11.74,11.74,0,0,0,2.76,2.38,8.25,8.25,0,0,0,4.87,1.61,4,4,0,0,0,3.34-2.11,3,3,0,0,0,.44-2.21,6.07,6.07,0,0,0-1-2.25,17.82,17.82,0,0,0-1.94-2.35c-.77-.8-1.54-1.63-2.3-2.5a29.45,29.45,0,0,1-2.12-2.74,10.31,10.31,0,0,1-1.43-3,7.39,7.39,0,0,1-.17-3.25,8.35,8.35,0,0,1,1.59-3.52,8.11,8.11,0,0,1,2.69-2.37,9.49,9.49,0,0,1,3.67-1.12,12.32,12.32,0,0,1,4.28.37,15.84,15.84,0,0,1,4.63,2.09,19.45,19.45,0,0,1,4.5,3.87,14.1,14.1,0,0,1,2.67,4.52C1139.68,409.9,1139.11,410.23,1137.94,410.89Z"/><path class="cls-2" d="M1167.54,419c-.76,1.8-1.13,2.69-1.88,4.49-5.9-2.47-8.81-3.81-14.56-6.71l-4.1,8.14c4.71,2.38,7.09,3.49,11.9,5.59l-1.88,4.31c-4.9-2.14-7.33-3.28-12.13-5.7l-4.18,8.3c6.33,3.19,9.54,4.67,16,7.39-.75,1.8-1.13,2.7-1.89,4.5a212.69,212.69,0,0,1-23.12-11.07l15.65-28.89A184.11,184.11,0,0,0,1167.54,419Z"/><path class="cls-2" d="M1198.68,446.32a15.26,15.26,0,0,1-2.89,6.13,14.48,14.48,0,0,1-5.15,4.08,17.65,17.65,0,0,1-7,1.6,24.27,24.27,0,0,1-8.27-1.25c-5.84-1.87-8.74-2.9-14.48-5.13l11.91-30.62c5,1.94,7.53,2.84,12.62,4.47a22.82,22.82,0,0,1,6.59,3.27,18.13,18.13,0,0,1,4.56,4.75,16.28,16.28,0,0,1,2.34,5.94A16.5,16.5,0,0,1,1198.68,446.32Zm-6.91-1.73a13.62,13.62,0,0,0,.47-4.9,10.1,10.1,0,0,0-4-7.3,14.1,14.1,0,0,0-4.28-2.16c-2.64-.85-4-1.29-6.59-2.23-3.1,8.72-4.64,13.08-7.74,21.8,2.89,1,4.34,1.52,7.26,2.46a15.06,15.06,0,0,0,5.18.77,10.3,10.3,0,0,0,4.36-1.12,9.74,9.74,0,0,0,3.3-2.85A13,13,0,0,0,1191.77,444.59Z"/><path class="cls-2" d="M1233.84,468.37c-2.29-.18-3.42-.28-5.7-.5a2.94,2.94,0,0,1-1.53-.56,2.24,2.24,0,0,1-.78-1.08c-.89-2.79-1.31-4.19-2.13-7-6.34-.78-9.5-1.26-15.79-2.44-1.63,2.42-2.46,3.62-4.15,6a2.19,2.19,0,0,1-1,.76,2.72,2.72,0,0,1-1.64.11c-2.26-.48-3.38-.73-5.63-1.25a318.76,318.76,0,0,0,20.87-29.3c2.6.44,3.91.65,6.52,1A320.68,320.68,0,0,0,1233.84,468.37Zm-23.35-15.49c4.76.86,7.15,1.23,11.94,1.85-1.27-4.58-1.86-6.86-3-11.45-.13-.51-.26-1.1-.4-1.79s-.26-1.43-.37-2.23c-.35.73-.68,1.4-1,2a18.61,18.61,0,0,1-.93,1.62C1214.33,446.93,1213.08,448.92,1210.49,452.88Z"/><path class="cls-2" d="M1244,436.12a1.9,1.9,0,0,1,.51.15,1.78,1.78,0,0,1,.43.32,4.49,4.49,0,0,1,.46.53A208.17,208.17,0,0,0,1264.68,459c-.1-.52-.17-1-.22-1.55s-.08-1-.1-1.41c-.35-8-.52-12-.87-19.95,2.27-.1,3.4-.17,5.67-.32q1.14,16.38,2.27,32.77c-1.52.11-2.29.15-3.81.24a3.83,3.83,0,0,1-1.47-.16,3,3,0,0,1-1.16-.76,214.74,214.74,0,0,1-19.88-21.79c0,.49.05,1,.06,1.45s0,.91,0,1.3c-.29,8.07-.44,12.1-.73,20.16-2.61-.09-3.91-.15-6.51-.31q1-16.4,2-32.79c1.35.08,2,.12,3.37.18A4.38,4.38,0,0,1,1244,436.12Z"/><path class="cls-2" d="M1292.68,461.91c3.14-.49,4.7-.76,7.83-1.35-1.42-7.52-2.14-11.29-3.56-18.82-.14-.72-.26-1.5-.36-2.31-1.73,1.94-2.62,2.9-4.43,4.8a2,2,0,0,1-.61.45,2.59,2.59,0,0,1-.64.19,2.1,2.1,0,0,1-.94,0,1.67,1.67,0,0,1-.68-.35c-.93-.84-1.39-1.26-2.29-2.11,3.86-4,5.7-6.05,9.22-10.2,1.91-.37,2.87-.57,4.78-1q3,14,6.08,28c2.76-.59,4.14-.91,6.89-1.59l1,4.08a211.4,211.4,0,0,1-21.64,4.35Z"/><path class="cls-2" d="M1327.55,444.56a12.11,12.11,0,0,1-3.87.58,9.71,9.71,0,0,1-3.73-.76,8.57,8.57,0,0,1-3-2.21,9.26,9.26,0,0,1-1.93-3.75,10,10,0,0,1-.22-4.23,10.86,10.86,0,0,1,1.48-3.93,12.47,12.47,0,0,1,3-3.28,14.43,14.43,0,0,1,4.38-2.28,14.83,14.83,0,0,1,4.84-.81,11.51,11.51,0,0,1,4.23.83,10.06,10.06,0,0,1,3.44,2.37,11.36,11.36,0,0,1,2.37,3.78,13.8,13.8,0,0,1,.77,2.8,13.39,13.39,0,0,1,.14,2.75,15.74,15.74,0,0,1-.38,2.78,29.19,29.19,0,0,1-.83,2.86c-1.81,5.24-2.8,7.86-4.94,13.08a3.55,3.55,0,0,1-1,1.31,5.76,5.76,0,0,1-1.91,1c-2.41.75-3.62,1.11-6,1.8,3.39-6.27,4.94-9.43,7.8-15.79.18-.39.34-.78.5-1.15s.29-.74.42-1.11a10.76,10.76,0,0,1-2.38,2A13.57,13.57,0,0,1,1327.55,444.56Zm5.09-12.11a6,6,0,0,0-1.24-2.1,5.12,5.12,0,0,0-1.79-1.26,6,6,0,0,0-2.21-.41,8,8,0,0,0-2.45.41,7.25,7.25,0,0,0-2.25,1.17,5.64,5.64,0,0,0-1.46,1.68,5.21,5.21,0,0,0-.63,2.06,6.06,6.06,0,0,0,.24,2.29,5.31,5.31,0,0,0,2.75,3.55,6.49,6.49,0,0,0,4.8,0,7.75,7.75,0,0,0,2.48-1.29,5.93,5.93,0,0,0,1.53-1.78,4.92,4.92,0,0,0,.58-2.08A5.74,5.74,0,0,0,1332.64,432.45Z"/><path class="cls-2" d="M1368.41,423.5a22.36,22.36,0,0,1,2.6,7.08,13.64,13.64,0,0,1-.27,6.08,12,12,0,0,1-2.8,4.89,16.11,16.11,0,0,1-4.88,3.5,15.67,15.67,0,0,1-5.77,1.52,11.71,11.71,0,0,1-5.49-1,13.81,13.81,0,0,1-4.8-3.68,23.05,23.05,0,0,1-3.79-6.52,25,25,0,0,1-1.85-7.32,15.42,15.42,0,0,1,.57-5.89,11.51,11.51,0,0,1,2.57-4.46,13.65,13.65,0,0,1,4.24-3.06,14.27,14.27,0,0,1,5.09-1.35,11.81,11.81,0,0,1,5.14.83,15.6,15.6,0,0,1,5,3.28A24.35,24.35,0,0,1,1368.41,423.5Zm-6,3.15a24.64,24.64,0,0,0-3.21-5,11.59,11.59,0,0,0-3.07-2.63,5.66,5.66,0,0,0-2.86-.76,6.53,6.53,0,0,0-2.58.63,6.19,6.19,0,0,0-2.09,1.58,5.4,5.4,0,0,0-1.2,2.67,11.57,11.57,0,0,0,.1,4,25.13,25.13,0,0,0,1.83,5.65,24,24,0,0,0,2.91,5.17,10.46,10.46,0,0,0,3,2.75,5.6,5.6,0,0,0,3,.78,7.29,7.29,0,0,0,2.8-.68,7.37,7.37,0,0,0,2.35-1.75,5.63,5.63,0,0,0,1.33-2.81,10.53,10.53,0,0,0-.17-4.09A23.5,23.5,0,0,0,1362.45,426.65Z"/><path class="cls-2" d="M1394.6,406.94a22,22,0,0,1,3.48,6.7,13.69,13.69,0,0,1,.46,6.09,12.19,12.19,0,0,1-2.22,5.26,16.54,16.54,0,0,1-4.48,4.15,16.15,16.15,0,0,1-5.61,2.3,11.77,11.77,0,0,1-5.63-.23,13.6,13.6,0,0,1-5.27-3,22.76,22.76,0,0,1-4.6-6,24.7,24.7,0,0,1-2.75-7,15.38,15.38,0,0,1-.15-5.94,11.79,11.79,0,0,1,2-4.79,14.2,14.2,0,0,1,3.89-3.61,14.44,14.44,0,0,1,5-2,12,12,0,0,1,5.27.12,15.58,15.58,0,0,1,5.38,2.58A24,24,0,0,1,1394.6,406.94Zm-5.61,4a24.64,24.64,0,0,0-3.83-4.54,11.54,11.54,0,0,0-3.41-2.19,5.75,5.75,0,0,0-3-.37,6.85,6.85,0,0,0-2.52,1,6.6,6.6,0,0,0-1.9,1.86,5.51,5.51,0,0,0-.88,2.83,11.25,11.25,0,0,0,.59,4,25.31,25.31,0,0,0,2.53,5.37,23.56,23.56,0,0,0,3.55,4.75,10.39,10.39,0,0,0,3.36,2.33,5.63,5.63,0,0,0,3.09.37,7.47,7.47,0,0,0,2.73-1.06,7.67,7.67,0,0,0,2.15-2.06,5.76,5.76,0,0,0,1-3,10.36,10.36,0,0,0-.67-4A22.92,22.92,0,0,0,1389,410.9Z"/><path class="cls-3" d="M60.18,207.6a5.11,5.11,0,0,1-1.73,2.11,4.35,4.35,0,0,1-2.35.61,6,6,0,0,1-3.06-1q-1.7-1.05-4-2.35a32.76,32.76,0,0,0-5.41-2.34,22.78,22.78,0,0,0-7.31-1.06,21.53,21.53,0,0,0-6.63.92A14,14,0,0,0,24.92,207,10.27,10.27,0,0,0,22,210.9a13,13,0,0,0-1,5A8.7,8.7,0,0,0,23,221.68a16,16,0,0,0,5.13,3.94,47.33,47.33,0,0,0,7.28,2.93c2.72.86,5.49,1.78,8.33,2.75a82.18,82.18,0,0,1,8.33,3.4,28.84,28.84,0,0,1,7.27,4.9,22.11,22.11,0,0,1,5.14,7.24,25.17,25.17,0,0,1,1.94,10.4,33.83,33.83,0,0,1-2.28,12.48,28.62,28.62,0,0,1-6.67,10.13,31.22,31.22,0,0,1-10.71,6.8,39.27,39.27,0,0,1-14.48,2.49,46.88,46.88,0,0,1-9.25-.92,48.8,48.8,0,0,1-8.74-2.62,45.62,45.62,0,0,1-7.82-4.08A38.61,38.61,0,0,1,0,276.22l5.3-8.78a6.75,6.75,0,0,1,1.81-1.59,4.39,4.39,0,0,1,2.34-.65,6.54,6.54,0,0,1,3.67,1.39q2,1.4,4.66,3.1a35.91,35.91,0,0,0,6.33,3.09,24.36,24.36,0,0,0,8.73,1.4q7.83,0,12.11-3.71t4.28-10.64a9.86,9.86,0,0,0-1.94-6.33,15.62,15.62,0,0,0-5.13-4.11,38.36,38.36,0,0,0-7.28-2.82q-4.08-1.15-8.29-2.52a70.32,70.32,0,0,1-8.3-3.26,26.87,26.87,0,0,1-7.27-5,22.44,22.44,0,0,1-5.14-7.65,29.17,29.17,0,0,1-1.94-11.32,27.12,27.12,0,0,1,8.4-19.51A30.91,30.91,0,0,1,22.44,191a36.88,36.88,0,0,1,13.67-2.38,46,46,0,0,1,16,2.72A36.34,36.34,0,0,1,64.67,199Z"/><path class="cls-3" d="M114.44,288.05H99.21L71.47,218.28H85.41a5.31,5.31,0,0,1,3.09.88,4.55,4.55,0,0,1,1.74,2.25l13.46,37.26q1.15,3.27,1.94,6.39t1.39,6.26c.41-2.08.87-4.17,1.4-6.26a60.55,60.55,0,0,1,2-6.39l13.81-37.26a4.53,4.53,0,0,1,1.7-2.25,4.9,4.9,0,0,1,2.92-.88h13.26Z"/><path class="cls-3" d="M178.64,217.19a34,34,0,0,1,12.13,2.11,26.75,26.75,0,0,1,9.56,6.15,28.13,28.13,0,0,1,6.25,9.93,37.4,37.4,0,0,1,2.25,13.43,24.77,24.77,0,0,1-.17,3.16,5.32,5.32,0,0,1-.61,2,2.61,2.61,0,0,1-1.19,1,5.21,5.21,0,0,1-1.91.3H161.84q.75,10.75,5.78,15.78t13.33,5a23.28,23.28,0,0,0,7-.95,33.42,33.42,0,0,0,5.16-2.11c1.48-.77,2.77-1.47,3.88-2.11a6.55,6.55,0,0,1,3.23-1,3.67,3.67,0,0,1,1.77.41,3.91,3.91,0,0,1,1.29,1.15l4.9,6.12a28.18,28.18,0,0,1-6.26,5.48,35.11,35.11,0,0,1-7.24,3.53,39,39,0,0,1-7.69,1.87,53.8,53.8,0,0,1-7.58.55,37.25,37.25,0,0,1-13.53-2.42A30.16,30.16,0,0,1,155,279.51a33.6,33.6,0,0,1-7.28-11.69,45.45,45.45,0,0,1-2.65-16.15,38.64,38.64,0,0,1,2.31-13.43,32.34,32.34,0,0,1,6.63-11,31.48,31.48,0,0,1,10.54-7.38A34.8,34.8,0,0,1,178.64,217.19Zm.34,12q-7.35,0-11.5,4.15t-5.3,11.76h31.55a20.83,20.83,0,0,0-.88-6.15,14.25,14.25,0,0,0-2.72-5.07,13,13,0,0,0-4.63-3.43A15.7,15.7,0,0,0,179,229.23Z"/><path class="cls-3" d="M222.49,288.05V218.28h10.27a4.13,4.13,0,0,1,4.29,3.06l1.15,5.51a38.44,38.44,0,0,1,4.46-3.95,32,32,0,0,1,5-3.06,25.5,25.5,0,0,1,5.61-2,29.62,29.62,0,0,1,6.53-.68,25,25,0,0,1,10.13,1.94,20,20,0,0,1,7.38,5.44,24,24,0,0,1,4.49,8.36,35.63,35.63,0,0,1,1.53,10.71v44.41h-16.8V243.64q0-6.39-3-9.89t-8.87-3.5a17.55,17.55,0,0,0-8.16,2,29.59,29.59,0,0,0-7.21,5.37v50.46Z"/><path class="cls-3" d="M341.22,231.88a4.36,4.36,0,0,1-1.43,1.53,3.64,3.64,0,0,1-1.9.44,5.9,5.9,0,0,1-2.62-.68c-.93-.45-2-1-3.23-1.53a31.3,31.3,0,0,0-4.18-1.53,20.18,20.18,0,0,0-5.54-.68,12.94,12.94,0,0,0-7.82,2.11,6.53,6.53,0,0,0-2.86,5.51,5.27,5.27,0,0,0,1.46,3.77,13.22,13.22,0,0,0,3.88,2.69,37.76,37.76,0,0,0,5.47,2.07q3.06.91,6.26,2a66,66,0,0,1,6.25,2.48,21.84,21.84,0,0,1,5.48,3.54A15.61,15.61,0,0,1,345.78,266a23.05,23.05,0,0,1-1.84,9.28,20.31,20.31,0,0,1-5.37,7.34,25,25,0,0,1-8.74,4.83,37.6,37.6,0,0,1-11.93,1.74,38,38,0,0,1-7-.65,41.62,41.62,0,0,1-6.6-1.8,36.48,36.48,0,0,1-5.84-2.72,28.11,28.11,0,0,1-4.73-3.4l3.87-6.39a5.53,5.53,0,0,1,1.77-1.77,4.94,4.94,0,0,1,2.59-.61,5.44,5.44,0,0,1,3,.88c.92.59,2,1.22,3.22,1.9a29.45,29.45,0,0,0,4.32,1.91,19,19,0,0,0,6.29.88,16.53,16.53,0,0,0,5.14-.71,11,11,0,0,0,3.53-1.87,7,7,0,0,0,2-2.69,8.05,8.05,0,0,0,.65-3.16,5.65,5.65,0,0,0-1.46-4,12.91,12.91,0,0,0-3.88-2.72,38.15,38.15,0,0,0-5.51-2.08q-3.09-.92-6.32-2a60.47,60.47,0,0,1-6.32-2.55,21.5,21.5,0,0,1-5.51-3.71,16.76,16.76,0,0,1-3.88-5.51,19.25,19.25,0,0,1-1.46-7.88,20.12,20.12,0,0,1,1.7-8.16,19.08,19.08,0,0,1,5-6.77,24.69,24.69,0,0,1,8.22-4.62A34.21,34.21,0,0,1,322,217.19a35,35,0,0,1,13.13,2.38,29.66,29.66,0,0,1,9.86,6.26Z"/><path class="cls-3" d="M376.24,187v57.87h3.13a6,6,0,0,0,2.65-.48,6.77,6.77,0,0,0,2-1.77L401.4,221.2a10.26,10.26,0,0,1,2.45-2.14,6.51,6.51,0,0,1,3.4-.78h15.37l-21.7,25.91a30.31,30.31,0,0,1-2.38,2.62,15.51,15.51,0,0,1-2.65,2.07,12.64,12.64,0,0,1,2.52,2.38c.72.91,1.45,1.88,2.17,2.92l23.26,33.87H408.68a7.47,7.47,0,0,1-3.34-.68,6.55,6.55,0,0,1-2.44-2.31L385.15,258.6a5.45,5.45,0,0,0-2-2,7.7,7.7,0,0,0-3.06-.47h-3.81v32h-16.8V187Z"/><path class="cls-3" d="M488.92,288.05h-7.55a8,8,0,0,1-3.74-.72,4.56,4.56,0,0,1-2-2.89l-1.5-5a57,57,0,0,1-5.2,4.18,32.12,32.12,0,0,1-5.27,3,26.7,26.7,0,0,1-5.78,1.83,34.61,34.61,0,0,1-6.8.62,26.55,26.55,0,0,1-8.16-1.2,17.55,17.55,0,0,1-6.43-3.58,16.26,16.26,0,0,1-4.18-5.94,21,21,0,0,1-1.49-8.25,16.34,16.34,0,0,1,2.07-7.81,19.52,19.52,0,0,1,6.9-7,43.91,43.91,0,0,1,12.85-5.15,81.82,81.82,0,0,1,19.93-2.05v-4.11q0-7.07-3-10.45t-8.6-3.39a20.93,20.93,0,0,0-6.8.95,26.84,26.84,0,0,0-4.73,2.14c-1.34.8-2.57,1.51-3.7,2.14a7.49,7.49,0,0,1-3.74,1,4.87,4.87,0,0,1-2.93-.89,7,7,0,0,1-2-2.17L434,228q12-11,29-11A28.18,28.18,0,0,1,474,219a23.21,23.21,0,0,1,8.13,5.58,23.85,23.85,0,0,1,5.06,8.53A32.71,32.71,0,0,1,488.92,244Zm-32.64-10.47a22.86,22.86,0,0,0,4.76-.47,18.3,18.3,0,0,0,4.11-1.41,21.34,21.34,0,0,0,3.74-2.31,33.82,33.82,0,0,0,3.64-3.24V258.47a68.89,68.89,0,0,0-12.28.92,32.68,32.68,0,0,0-7.92,2.37,10.14,10.14,0,0,0-4.25,3.35,7.46,7.46,0,0,0-1.26,4.18c0,3,.88,5.09,2.62,6.37A11.31,11.31,0,0,0,456.28,277.58Z"/><path class="cls-3" d="M532.64,288.05V189.72h33.93a64,64,0,0,1,16.49,1.84,31.42,31.42,0,0,1,11.22,5.23,20.29,20.29,0,0,1,6.43,8.23,27.73,27.73,0,0,1,2,10.88,21.48,21.48,0,0,1-1,6.63,19.39,19.39,0,0,1-3.16,5.92,23.88,23.88,0,0,1-5.44,5,32.66,32.66,0,0,1-7.86,3.81q20.26,4.56,20.27,21.9a28,28,0,0,1-2.38,11.56,25.54,25.54,0,0,1-6.94,9.14,33,33,0,0,1-11.22,6,49,49,0,0,1-15.23,2.18Zm18.29-55.76h14.62q9.32,0,14.15-3.4t4.82-10.81q0-7.7-4.35-11t-13.6-3.27H550.93Zm0,12.65v28.83H569.5a25.52,25.52,0,0,0,8.53-1.23,14.79,14.79,0,0,0,5.51-3.26,12,12,0,0,0,3-4.76,18,18,0,0,0,.92-5.78,15.38,15.38,0,0,0-1-5.75,10.78,10.78,0,0,0-3.2-4.35,14.91,14.91,0,0,0-5.57-2.75,30.67,30.67,0,0,0-8.23-.95Z"/><path class="cls-3" d="M675,288.05h-7.55a8.1,8.1,0,0,1-3.74-.72,4.63,4.63,0,0,1-2-2.89l-1.49-5a57,57,0,0,1-5.2,4.18,32.12,32.12,0,0,1-5.27,3,26.88,26.88,0,0,1-5.78,1.83,34.61,34.61,0,0,1-6.8.62,26.55,26.55,0,0,1-8.16-1.2,17.47,17.47,0,0,1-6.43-3.58,16.14,16.14,0,0,1-4.18-5.94,21,21,0,0,1-1.5-8.25,16.24,16.24,0,0,1,2.08-7.81,19.52,19.52,0,0,1,6.9-7,43.91,43.91,0,0,1,12.85-5.15,81.79,81.79,0,0,1,19.92-2.05v-4.11q0-7.07-3-10.45c-2-2.26-4.84-3.39-8.61-3.39a21,21,0,0,0-6.8.95,26.72,26.72,0,0,0-4.72,2.14c-1.34.8-2.58,1.51-3.71,2.14a7.47,7.47,0,0,1-3.74,1,4.84,4.84,0,0,1-2.92-.89,6.8,6.8,0,0,1-2-2.17L620.09,228q12-11,29-11A28.23,28.23,0,0,1,660,219a23.26,23.26,0,0,1,8.12,5.58,24,24,0,0,1,5.07,8.53A33,33,0,0,1,675,244Zm-32.64-10.47a22.79,22.79,0,0,0,4.76-.47,18.55,18.55,0,0,0,4.12-1.41,21.72,21.72,0,0,0,3.74-2.31,32.83,32.83,0,0,0,3.63-3.24V258.47a68.85,68.85,0,0,0-12.27.92,32.4,32.4,0,0,0-7.92,2.37,10.08,10.08,0,0,0-4.25,3.35,7.46,7.46,0,0,0-1.26,4.18q0,4.45,2.62,6.37A11.26,11.26,0,0,0,642.32,277.58Z"/><path class="cls-3" d="M691.49,288.05V218.28h10.26a4.13,4.13,0,0,1,4.29,3.06l1.15,5.51a38.44,38.44,0,0,1,4.46-3.95,32.43,32.43,0,0,1,5-3.06,25.87,25.87,0,0,1,5.61-2,29.69,29.69,0,0,1,6.53-.68,25,25,0,0,1,10.13,1.94,20,20,0,0,1,7.38,5.44,24,24,0,0,1,4.49,8.36,35.63,35.63,0,0,1,1.53,10.71v44.41h-16.8V243.64q0-6.39-3-9.89t-8.87-3.5a17.55,17.55,0,0,0-8.16,2,29.59,29.59,0,0,0-7.21,5.37v50.46Z"/><path class="cls-3" d="M785.8,187v57.87h3.13a6,6,0,0,0,2.65-.48,6.54,6.54,0,0,0,2-1.77L811,221.2a10.26,10.26,0,0,1,2.45-2.14,6.51,6.51,0,0,1,3.4-.78h15.37l-21.69,25.91a32.1,32.1,0,0,1-2.39,2.62,15.13,15.13,0,0,1-2.65,2.07,12.38,12.38,0,0,1,2.52,2.38c.72.91,1.45,1.88,2.18,2.92l23.25,33.87H818.24a7.4,7.4,0,0,1-3.33-.68,6.5,6.5,0,0,1-2.45-2.31L794.71,258.6a5.45,5.45,0,0,0-2-2,7.7,7.7,0,0,0-3.06-.47H785.8v32H769V187Z"/><path class="cls-3" d="M868.56,217.19a34,34,0,0,1,12.13,2.11,26.75,26.75,0,0,1,9.56,6.15,28.13,28.13,0,0,1,6.25,9.93,37.4,37.4,0,0,1,2.25,13.43,24.77,24.77,0,0,1-.17,3.16,5.14,5.14,0,0,1-.61,2,2.56,2.56,0,0,1-1.19,1,5.21,5.21,0,0,1-1.91.3H851.76q.75,10.75,5.78,15.78t13.33,5a23.24,23.24,0,0,0,7-.95,33.42,33.42,0,0,0,5.16-2.11q2.22-1.15,3.88-2.11a6.55,6.55,0,0,1,3.23-1,3.67,3.67,0,0,1,1.77.41,3.91,3.91,0,0,1,1.29,1.15l4.9,6.12a28.18,28.18,0,0,1-6.26,5.48,35.11,35.11,0,0,1-7.24,3.53,39.11,39.11,0,0,1-7.68,1.87,54,54,0,0,1-7.59.55,37.25,37.25,0,0,1-13.53-2.42A30.16,30.16,0,0,1,845,279.51a33.44,33.44,0,0,1-7.27-11.69A45.23,45.23,0,0,1,835,251.67a38.41,38.41,0,0,1,2.32-13.43,32.34,32.34,0,0,1,6.63-11,31.28,31.28,0,0,1,10.54-7.38A34.71,34.71,0,0,1,868.56,217.19Zm.34,12q-7.35,0-11.5,4.15t-5.3,11.76h31.55a20.83,20.83,0,0,0-.88-6.15,14.25,14.25,0,0,0-2.72-5.07,13,13,0,0,0-4.63-3.43A15.7,15.7,0,0,0,868.9,229.23Z"/><path class="cls-3" d="M912.41,288.05V218.28h10.27a4.13,4.13,0,0,1,4.29,3.06l1.15,5.51a38.44,38.44,0,0,1,4.46-3.95,32.43,32.43,0,0,1,5-3.06,25.87,25.87,0,0,1,5.61-2,29.69,29.69,0,0,1,6.53-.68,25,25,0,0,1,10.13,1.94,20,20,0,0,1,7.38,5.44,24,24,0,0,1,4.49,8.36,35.63,35.63,0,0,1,1.53,10.71v44.41h-16.8V243.64q0-6.39-3-9.89t-8.87-3.5a17.55,17.55,0,0,0-8.16,2,29.59,29.59,0,0,0-7.21,5.37v50.46Z"/></g></g></svg>