<svg xmlns="http://www.w3.org/2000/svg" viewBox="0 0 1175.22 225"><defs><style>.cls-1,.cls-3{fill:#fc8d08;}.cls-2{fill:#b26008;}.cls-3{stroke:#b26008;stroke-miterlimit:10;stroke-width:8px;}</style></defs><g id="Layer_2" data-name="Layer 2"><g id="Layer_1-2" data-name="Layer 1"><path class="cls-1" d="M43.46,62C32.32,62,26.17,67.1,26.17,74c-.16,7.73,7.67,11.19,17,13.35l9.67,2.31c18.7,4.21,32.21,13.72,32.26,31.64,0,19.7-15.5,32.26-41.78,32.26-26.11,0-42.77-12-43.35-35.31H22c.73,10.77,9.25,16.24,21.07,16.24,11.56,0,19-5.36,19.08-13.24-.05-7.26-6.57-10.62-18.29-13.46l-11.72-2.94C14,100.53,2.79,91.44,2.84,75.57,2.73,56,20,43,43.62,43c24,0,39.73,13.25,40,32.43H61.85C61,67,54.34,62,43.46,62Z"/><path class="cls-1" d="M147,152.08H121.77L93.55,71.36H117.2L134,129.12h.84l16.72-57.76h23.7Z"/><path class="cls-1" d="M180.75,112.09c0-24.91,15.39-41.78,39.15-41.78,21.33,0,37.94,13.56,37.94,41v6.15h-55v0c0,12,7.09,19.45,18.29,19.45,7.46,0,13.24-3.21,15.5-9.36L257.37,129c-3.16,15-16.61,24.7-36.58,24.7C195.93,153.66,180.75,137.68,180.75,112.09Zm56-8.51C236.71,94,230,87,220.26,87a17,17,0,0,0-17.39,16.56Z"/><path class="cls-1" d="M294.84,152.08H272.46V71.36h21.33V85.6h.95C298.36,76.2,307,70.31,319,70.31c16.81,0,27.85,11.56,27.85,30.37v51.4H324.48v-47.4c.06-9.88-5.36-15.77-14.34-15.77s-15.24,6.1-15.3,16.5Z"/><path class="cls-1" d="M411.15,95.64c-1.1-5.2-5.73-9.46-13.51-9.46-6.93,0-12.4,3.15-12.35,8-.05,3.89,2.74,6.46,10.25,8.09l14.61,2.94c15.66,3.21,23.28,10.2,23.33,21.87-.05,15.92-15,26.59-35.94,26.59-21.39,0-34.53-9.52-36.63-25l22-1.15c1.37,6.57,6.67,10,14.66,10,7.83,0,13-3.41,13.14-8.19-.11-4.05-3.31-6.63-10.35-8l-14-2.79c-15.77-3.15-23.39-11-23.33-23.07-.06-15.55,13.55-25.12,34.21-25.12,20.39,0,32.37,9.2,34.37,24.07Z"/><path class="cls-1" d="M447.63,44.46H470V102h1.2l25.86-30.64h25.7l-30,35,31.48,45.77H498.08l-22-32.53-6,6.89v25.64H447.63Z"/><path class="cls-1" d="M529.93,129.54c0-18,14.35-23.39,30.33-24.86,14-1.37,19.54-2.05,19.54-7.25v-.32c0-6.62-4.36-10.46-12-10.46-8,0-12.82,3.94-14.34,9.31l-20.71-1.69c3.1-14.71,15.82-24,35.16-24,18,0,34.26,8.09,34.26,27.33v54.44H581V140.89h-.63c-3.94,7.51-11.67,12.71-23.6,12.71C541.34,153.6,529.93,145.51,529.93,129.54Zm50-6.31v-8.57c-2.68,1.79-10.67,3-15.55,3.63-7.89,1.1-13.09,4.2-13.09,10.51,0,6.15,4.94,9.35,11.83,9.35C573,138.15,580,131.69,580,123.23Z"/><path class="cls-2" d="M654.34,44.46h43.09c23.75,0,35.73,11.45,35.73,27.58,0,12.67-8.25,20.6-19.44,23.13v1c12.24.58,23.65,10.19,23.65,26.12,0,17.13-12.88,29.74-37,29.74h-46Zm39.62,45c9.3,0,16.24-5.15,16.24-13.66,0-7.78-5.73-13-15.82-13H677.09V89.49Zm1.68,44c12.72,0,18.24-5.31,18.24-13.4,0-8.88-6.78-15.19-17.71-15.19H677.09v28.59Z"/><path class="cls-2" d="M747.94,129.54c0-18,14.35-23.39,30.32-24.86,14-1.37,19.55-2.05,19.55-7.25v-.32c0-6.62-4.36-10.46-12-10.46-8,0-12.82,3.94-14.35,9.31l-20.7-1.69c3.1-14.71,15.82-24,35.16-24,18,0,34.26,8.09,34.26,27.33v54.44H799V140.89h-.63c-3.94,7.51-11.67,12.71-23.6,12.71C759.34,153.6,747.94,145.51,747.94,129.54Zm50-6.31v-8.57c-2.68,1.79-10.67,3-15.56,3.63-7.88,1.1-13.08,4.2-13.08,10.51,0,6.15,4.94,9.35,11.82,9.35C791,138.15,798,131.69,798,123.23Z"/><path class="cls-2" d="M860,152.08H837.6V71.36h21.34V85.6h.94c3.63-9.4,12.3-15.29,24.28-15.29C901,70.31,912,81.87,912,100.68v51.4H889.63v-47.4c0-9.88-5.36-15.77-14.35-15.77S860,95,860,105.41Z"/><path class="cls-2" d="M929.63,44.46H952V102h1.21l25.85-30.64h25.7l-30,35,31.48,45.77H980.08l-22-32.53-6,6.89v25.64H929.63Z"/><path class="cls-2" d="M1009.1,112.09c0-24.91,15.4-41.78,39.15-41.78,21.34,0,37.94,13.56,37.94,41v6.15h-55v0c0,12,7.1,19.45,18.29,19.45,7.46,0,13.24-3.21,15.5-9.36l20.71,1.37c-3.15,15-16.61,24.7-36.58,24.7C1024.29,153.66,1009.1,137.68,1009.1,112.09Zm56-8.51c0-9.62-6.78-16.56-16.5-16.56a17.06,17.06,0,0,0-17.4,16.56Z"/><path class="cls-2" d="M1123.2,152.08h-22.39V71.36h21.34V85.6h.94c3.63-9.4,12.3-15.29,24.28-15.29,16.82,0,27.85,11.56,27.85,30.37v51.4h-22.38v-47.4c.05-9.88-5.36-15.77-14.35-15.77s-15.24,6.1-15.29,16.5Z"/><line class="cls-3" x1="627.99" x2="627.99" y2="225"/></g></g></svg>